<svg id="Layer_1" height="512" viewBox="0 0 128 128" width="512" xmlns="http://www.w3.org/2000/svg" data-name="Layer 1"><rect fill="#495766" height="41.823" rx="1.75" width="15.5" x="103.75" y="71.773"/><path d="m22.5 71.773h-12a1.75 1.75 0 0 0 -1.75 1.75v38.323a1.75 1.75 0 0 0 1.75 1.75h12a1.75 1.75 0 0 0 1.75-1.75v-22.7a1.75 1.75 0 0 0 -1.067-1.611 3.326 3.326 0 0 1 -1.812-1.835 3.885 3.885 0 0 1 .109-3l2.62-6.024a1.757 1.757 0 0 0 .146-.7v-2.453a1.75 1.75 0 0 0 -1.746-1.75z" fill="#495766"/><path d="m117.5 71.773h-12a1.75 1.75 0 0 0 -1.75 1.75v7.47h15.5v-7.47a1.75 1.75 0 0 0 -1.75-1.75z" fill="#303c47"/><path d="m22.819 71.773h-12a1.75 1.75 0 0 0 -1.75 1.75v7.47h15.5v-7.47a1.75 1.75 0 0 0 -1.75-1.75z" fill="#303c47"/><circle cx="12.66" cy="47.673" fill="#f6b493" r="10.91"/><path d="m12.66 60.333a12.66 12.66 0 1 1 12.66-12.66 12.674 12.674 0 0 1 -12.66 12.66zm0-21.819a9.16 9.16 0 1 0 9.16 9.16 9.17 9.17 0 0 0 -9.16-9.161z" fill="#f6b493"/><path d="m21.757 38.891a15.188 15.188 0 0 0 -4.938 11.2v9.526a12.629 12.629 0 0 0 4.938-20.725z" fill="#e59a7a"/><rect fill="#495766" height="18.441" rx="1.75" width="25.319" y="56.833"/><path d="m128 56.833h-92.875a1.75 1.75 0 0 0 -1.75 1.75v14.94a1.75 1.75 0 0 0 1.75 1.75h91.125a1.75 1.75 0 0 0 1.75-1.75z" fill="#495766"/><g fill="#fec13b"><path d="m38.187 43.347a1.75 1.75 0 0 1 -1.75-1.75v-7.097a1.75 1.75 0 1 1 3.5 0v7.1a1.75 1.75 0 0 1 -1.75 1.747z"/><path d="m54.833 43.347a1.75 1.75 0 0 1 -1.75-1.75v-7.097a1.75 1.75 0 0 1 3.5 0v7.1a1.75 1.75 0 0 1 -1.75 1.747z"/><path d="m71.479 43.347a1.75 1.75 0 0 1 -1.75-1.75v-7.097a1.75 1.75 0 0 1 3.5 0v7.1a1.75 1.75 0 0 1 -1.75 1.747z"/></g><path d="m38.187 24.5a4.818 4.818 0 0 0 -4.812 4.813v5.187a1.75 1.75 0 0 0 1.75 1.75h6.125a1.75 1.75 0 0 0 1.75-1.75v-5.184a4.818 4.818 0 0 0 -4.813-4.816z" fill="#4db6ac"/><path d="m54.833 24.5a4.818 4.818 0 0 0 -4.812 4.813v5.187a1.75 1.75 0 0 0 1.75 1.75h6.129a1.75 1.75 0 0 0 1.75-1.75v-5.184a4.818 4.818 0 0 0 -4.817-4.816z" fill="#4db6ac"/><path d="m71.479 24.5a4.818 4.818 0 0 0 -4.812 4.813v5.187a1.75 1.75 0 0 0 1.75 1.75h6.125a1.75 1.75 0 0 0 1.75-1.75v-5.184a4.818 4.818 0 0 0 -4.813-4.816z" fill="#4db6ac"/><path d="m33.375 58.583v14.94a1.75 1.75 0 0 0 1.75 1.75h6.146l.458-1.051a1.749 1.749 0 0 0 .146-.7v-16.689h-6.75a1.75 1.75 0 0 0 -1.75 1.75z" fill="#303c47"/><path d="m36.875 56.833h90.99a12.74 12.74 0 0 0 -12.6-10.981h-21.421a23.535 23.535 0 0 0 -15.743-6h-46.039a10.255 10.255 0 0 0 -10.243 10.238v23.069l-3.547 8.141a7.34 7.34 0 0 0 .109 6.286 6.838 6.838 0 0 0 4.726 3.594 7.078 7.078 0 0 0 8-4.062l5.62-12.893a1.749 1.749 0 0 0 .146-.7v-16.692z" fill="#f6b493"/></svg>