<svg id="Capa_1" enable-background="new 0 0 512 512" height="512" viewBox="0 0 512 512" width="512" xmlns="http://www.w3.org/2000/svg"><g><g><path d="m38.514 185.042c12.367-6.717 28.05-1.497 34.531 10.994l17.198 33.146v-159.587c0-14.073 11.517-25.929 25.587-25.663 13.639.259 24.617 11.396 24.617 25.097v-43.363c0-14.073 11.517-25.929 25.587-25.663 13.639.259 24.617 11.396 24.617 25.097v31.377c0-13.701 10.977-24.839 24.617-25.097 14.07-.267 25.587 11.59 25.587 25.663v44.409c0-13.701 10.977-24.839 24.617-25.097 14.07-.267 25.587 11.59 25.587 25.663v399.982c0 5.523-4.477 10-10 10h-180.816c-5.523 0-10-4.477-10-10v-158.93c0-3.206-.771-6.365-2.247-9.211l-59.773-115.203c-6.31-12.161-1.696-27.103 10.291-33.614z" fill="#fcd0a3"/><path d="m267.35 76.389c-3.636-.198-7.112.386-10.284 1.587 9.474 3.59 16.212 12.744 16.212 23.476v410.548h7.781c5.523 0 10-4.477 10-10v-400.018c-.001-13.416-10.313-24.862-23.709-25.593z" fill="#ffb983"/><path d="m61.803 206.517 16.591 32.063c3.022 5.839 11.849 3.691 11.849-2.884v-6.641l-17.458-33.52c-6.385-12.306-21.536-17.105-33.842-10.72-4.839 2.511-8.511 6.38-10.805 10.896 12.274-6.249 27.311-1.441 33.665 10.806z" fill="#ffb983"/><path d="m291.058 502v-201.935c-14.973 2.253-37.162 9.969-50.204 34.993-21.027 40.344-39.996 45.447-60.963 45.447-34.612 0-51.585 20.19-48.843 48.843 2.66 27.797 28.936 39.344 59.825 43.566 17.41 2.38 37.137 8.986 37.137 27.448 0 3.833-1.187 7.773-4.135 11.638h57.182c5.524 0 10.001-4.477 10.001-10z" fill="#f8b0b0"/><g fill="#fc8086"><path d="m273.278 512h7.781c5.523 0 10-4.477 10-10v-201.935c-5.27.793-11.436 2.269-17.781 4.932z"/><circle cx="172.755" cy="414.316" r="8.283"/><circle cx="241.504" cy="386.718" r="8.283"/><circle cx="220.716" cy="410.655" r="8.283"/><circle cx="255.402" cy="445.4" r="8.283"/><circle cx="255.402" cy="492.234" r="8.283"/><circle cx="202.627" cy="447.806" r="8.283"/></g></g><g><path d="m410.886 214.136c-54.033-14.317-110.139 18.252-124.461 72.284-5.297 19.986-4.266 40.134 1.837 58.344.584 1.744.325 3.66-.66 5.212l-13.194 20.79c-2.666 4.201.472 9.671 5.445 9.489l25.181-.92c1.787-.065 3.529.633 4.736 1.953 13.026 14.239 30.24 24.945 50.39 29.976 54.323 13.563 110.008-19.984 123.448-74.337 13.328-53.904-19.046-108.569-72.722-122.791z" fill="#90d8f9"/><circle cx="384.801" cy="312.514" fill="#ffb983" r="74.859"/><g fill="#fc8086"><circle cx="387.183" cy="279.381" r="15.531"/><circle cx="409.962" cy="332.186" r="15.531"/><circle cx="354.051" cy="324.938" r="15.531"/></g></g><g><g><path d="m240.856 56.474v177.809c0 4.265-3.462 7.726-7.726 7.726-4.265 0-7.726-3.461-7.726-7.726v-200.977c9.075 3.78 15.452 12.733 15.452 23.168z" fill="#ffb983"/></g><g><path d="m190.645 24.673v209.611c0 4.265-3.451 7.726-7.726 7.726-4.265 0-7.726-3.461-7.726-7.726v-232.358c8.952 3.719 15.287 12.486 15.452 22.747z" fill="#ffb983"/></g><g><path d="m140.445 69.032v165.251c0 4.265-3.462 7.726-7.726 7.726-4.265 0-7.726-3.461-7.726-7.726v-188.43c9.075 3.781 15.452 12.733 15.452 23.179z" fill="#ffb983"/></g></g></g></svg>