<svg id="Layer_1" height="512" viewBox="0 0 512 512" width="512" xmlns="http://www.w3.org/2000/svg" data-name="Layer 1"><path d="m495.99 79.68c2.98 6.28 5.01 11.38 5.01 18.38a28.48 28.48 0 0 1 -56.96 0c0-7 2.4-12.84 5-18.38 4.6-9.77 23.48-37.6 23.48-37.6s18.81 27.76 23.47 37.6z" fill="#75d2fc"/><path d="m85.12 461.62-52.85-52.85a12.459 12.459 0 0 0 -17.62 17.62l52.85 52.85a12.459 12.459 0 0 0 17.62-17.62z" fill="#b0b5ca"/><path d="m115.81 395.7-48.31 48.3-17.61-17.61 48.3-48.31z" fill="#d4e1f4"/><path d="m364.45 155.87.29.29a12.029 12.029 0 0 1 0 17.03l-26.75 26.75-44.04-44.05 26.75-26.74a12.029 12.029 0 0 1 17.03 0l.29.29z" fill="#b7ff8d"/><path d="m340.03 224.33a15.819 15.819 0 0 0 0-22.36l-48.12-48.11a15.807 15.807 0 0 0 -22.35 0l-178.54 178.54v.01l70.47 70.47v-.01m117.74-227.76a.5.5 0 0 1 -.7 0 .5.5 0 0 1 0-.71.5.5 0 0 1 .7 0 .5.5 0 0 1 0 .71z" fill="#a0eaea"/><path d="m463.04 94.68c3.66-7.78 16.36-26.98 21.393-34.498-6.011-9.391-11.913-18.1-11.913-18.1s-18.88 27.83-23.48 37.6c-2.6 5.54-5 11.38-5 18.38a28.472 28.472 0 0 0 16.06 25.622 28.361 28.361 0 0 1 -2.058-10.624c-.002-7 2.398-12.84 4.998-18.38z" fill="#5ebad3"/><path d="m338.02 129.44-.29-.29a12.029 12.029 0 0 0 -17.03 0l-26.75 26.74 14.5 14.5 26.25-26.24a12.029 12.029 0 0 1 17.03 0l.29.29z" fill="#9fdd76"/><path d="m291.91 153.86a15.807 15.807 0 0 0 -22.35 0l-178.54 178.54v.01l14.5 14.495 178.04-178.045a15.807 15.807 0 0 1 22.35 0z" fill="#83ccc8"/><circle cx="278.88" cy="174.755" fill="#a0eaea" r=".497"/><path d="m396.915 102.973a6 6 0 0 1 -4.243-10.243l67.86-67.86a6 6 0 1 1 8.486 8.485l-67.861 67.861a5.982 5.982 0 0 1 -4.242 1.757z" fill="#d4e1f4"/><g fill="#55d8d8"><path d="m297.986 213.519a6 6 0 0 0 -8.486 8.481l26.426 26.427 8.485-8.486z"/><path d="m255.117 256.388a6 6 0 1 0 -8.485 8.486l26.426 26.426 8.485-8.486z"/><path d="m289.765 248.167a6 6 0 1 0 -8.486 8.485l13.213 13.213 8.486-8.485z"/><path d="m212.248 299.257a6 6 0 0 0 -8.486 8.486l26.426 26.426 8.486-8.485z"/><path d="m246.9 291.036a6 6 0 0 0 -8.486 8.485l13.213 13.213 8.486-8.485z"/><path d="m169.378 342.126a6 6 0 0 0 -8.485 8.486l26.426 26.426 8.486-8.485z"/><path d="m204.026 333.905a6 6 0 0 0 -8.485 8.486l13.213 13.209 8.485-8.486z"/></g><path d="m278.88 181.254a6.5 6.5 0 0 1 -4.6-11.093 6.5 6.5 0 1 1 4.6 11.093z" fill="#f4f8fc"/><path d="m197.718 262.623a6 6 0 0 1 -4.243-10.243l69.141-69.14a6 6 0 0 1 8.486 8.485l-69.141 69.141a5.986 5.986 0 0 1 -4.243 1.757z" fill="#f4f8fc"/><path d="m396.91 96.97a18.7 18.7 0 0 1 0 26.43l-32.46 32.46v.01l-26.43-26.43 32.47-32.47a18.692 18.692 0 0 1 26.42 0z" fill="#b1e862"/><path d="m402.1 107.047a18.661 18.661 0 0 0 -31.61-10.077l-32.47 32.47 14.5 14.5 31.97-31.97a18.669 18.669 0 0 1 17.61-4.923z" fill="#9ec94c"/><path d="m167.9 409.29-83.3-83.3a13.612 13.612 0 0 0 -19.25 19.25l83.3 83.3a13.612 13.612 0 0 0 19.25-19.25z" fill="#b0b5ca"/></svg>