<svg id="Layer_1" enable-background="new 0 0 512 512" height="512" viewBox="0 0 512 512" width="512" xmlns="http://www.w3.org/2000/svg"><g><path d="m407.146 77.517c-8.488.173-16.164 3.675-21.749 9.266-5.729 5.722-9.284 13.642-9.284 22.382 0 0 0 123.601.013 125.942h-126.774v-185.716c0-17.317-13.646-31.909-30.97-32.294-9.037-.201-17.232 3.372-23.133 9.265-5.742 5.735-9.284 13.642-9.284 22.382v222.69l-49.891-66.059c-11.789-15.609-34.004-18.712-49.584-6.925-15.558 11.77-18.602 33.928-6.799 49.491l54.94 72.445 47.515 62.654c13.209 17.404 25.927 27.699 38.767 33.517 7.012 3.178 11.518 10.153 11.518 17.851v73.592c0 2.209 1.791 4 4 4h159.006c2.209 0 4-1.791 4-4v-87.384c0-6.276 2.98-12.208 8.086-15.857 19.36-13.835 31.976-36.478 31.976-62.061v-232.833c.001-17.783-14.562-32.711-32.353-32.348z" fill="#ffc39c"/><g fill="#fdaa8e"><path d="m105.147 205.374 41.083 54.397c5.547 7.344 14.221 11.662 23.429 11.662h16.306l-49.891-66.059c-10.377-13.74-28.831-17.783-43.729-10.517 4.887 2.366 9.305 5.887 12.802 10.517z"/><path d="m218.425 48.743v161.639c0 13.655 11.077 24.724 24.742 24.724h6.185v-185.684c0-17.256-13.536-31.844-30.798-32.321-5.953-.164-11.542 1.316-16.36 4.014 9.681 5.418 16.231 15.758 16.231 27.628z"/><path d="m408.75 77.524c-5.968-.174-11.578 1.307-16.409 4.009 9.682 5.415 16.232 15.753 16.232 27.632v233.533c0 25.583-12.616 48.227-31.976 62.061-5.106 3.649-8.086 9.581-8.086 15.857v91.384h26.927c2.209 0 4-1.791 4-4v-87.384c0-6.276 2.98-12.208 8.086-15.857 19.36-13.835 31.976-36.478 31.976-62.061v-232.852c0-17.238-13.507-31.82-30.75-32.322z"/></g><g fill="#fdaa8e"><path d="m105.147 205.374 41.083 54.397c5.547 7.344 14.221 11.662 23.429 11.662h16.306l-49.891-66.059c-10.377-13.74-28.831-17.783-43.729-10.517 4.887 2.366 9.305 5.887 12.802 10.517z"/><path d="m218.425 48.743v161.639c0 13.655 11.077 24.724 24.742 24.724h6.185v-185.684c0-17.256-13.536-31.844-30.798-32.321-5.953-.164-11.542 1.316-16.36 4.014 9.681 5.418 16.231 15.758 16.231 27.628z"/></g><path d="m249.349 253.86h63.383v-222.18c0-17.497-14.184-31.68-31.68-31.68h-.022c-17.497 0-31.68 14.184-31.68 31.68v222.18z" fill="#ffc39c"/><path d="m281.041 0c-5.617 0-10.889 1.466-15.463 4.028 9.681 5.42 16.228 15.764 16.228 27.642v178.713c0 13.655 11.077 24.724 24.742 24.724h6.185v-203.438c-.001-17.49-14.19-31.669-31.692-31.669z" fill="#fdaa8e"/><path d="m375.923 253.86v-18.658l.192-183.559c0-17.481-14.189-31.652-31.691-31.652-17.503 0-31.691 14.179-31.691 31.669v202.008c-.001 0 63.19.192 63.19.192z" fill="#ffc39c"/><path d="m344.424 19.991c-5.616 0-10.887 1.466-15.462 4.027 9.68 5.417 16.226 15.755 16.226 27.626l-.166 158.79c-.014 13.636 11.021 24.709 24.666 24.75l6.235.019.193-183.559c-.001-17.482-14.19-31.653-31.692-31.653z" fill="#fdaa8e"/><path d="m439.5 268.537v74.163c0 .423 0 .855-.021 1.277-.701-.103-1.402-.247-2.093-.443-5.763-1.638-10.134-6.233-15.226-9.385-8.34-5.172-19.278-6.954-25.01-14.917-5.371-7.458-4.072-18.008.113-26.197 3.917-7.685 10.185-14.155 17.711-18.399 6.372-3.595 15.805-6.377 24.526-6.099z" fill="#f07f7f"/><path d="m414.975 274.636c-2.264 1.277-4.395 2.776-6.402 4.428v48.623c4.523 2.109 9.385 3.856 13.587 6.462 5.093 3.152 9.464 7.747 15.226 9.385.691.196 1.392.34 2.093.443.019-.381.018-.769.019-1.151 0-.043.002-.085.002-.128v-74.161c-8.721-.278-18.154 2.504-24.525 6.099z" fill="#e67575"/><g fill="#f07f7f"><path d="m239.79 301.471c-6.815 13.444 1.4 22.315 14.555 26.323 8.679 2.764 18.337 4.083 26.753.6 8.321-3.443 14.463-11.653 15.412-20.603.95-8.949-3.332-18.264-10.745-23.375-16.45-11.34-38.28 1.04-45.975 17.055z"/><path d="m291.639 415.388c14.563 23.882 49.671 18.036 57.101-8.55 3.185-11.841-.967-25.276-10.108-33.454-6.693-5.988-15.984-9.18-24.876-7.905-20.72 2.97-32.175 32.491-22.117 49.909z"/><path d="m280.886 512h-44.452c-2.209 0-4-1.791-4-4v-38.145c3.412-.773 7.01-1.081 10.659-.865 10.907.628 21.731 5.161 29.133 13.197 7.907 8.385 10.711 19.748 8.66 29.813z"/><path d="m172.075 343.04c-2.041 5.316-5.66 9.859-10.165 13.31l-27.278-35.964-6.319-8.334c.186-.144.371-.268.567-.402 9.103-6.181 21.587-8.025 31.288-2.833 11.649 6.233 16.638 21.902 11.907 34.223z"/><path d="m220.681 136.427c-6.082 5.903-15.041 7.531-23.474 8.406-3.732.381-7.546.67-11.247.175v-54.311c3.732-.258 7.278-.186 10.175.093 10.804 1.03 21.546 6.408 27.216 15.649 5.67 9.24 5.114 22.437-2.67 29.988z"/></g></g></svg>