<svg id="_x33_0" enable-background="new 0 0 64 64" height="512" viewBox="0 0 64 64" width="512" xmlns="http://www.w3.org/2000/svg"><g><g><g><path d="m62 46v7c0 .55-.45 1-1 1h-19-.01c-.03-2.84-.68-5.55-1.82-8z" fill="#aab2bd"/></g><g><path d="m32 29v8.18c-1.83-1.03-3.84-1.78-6-2.18v-5h3c1.13 0 2.17-.37 3-1z" fill="#ccd1d9"/></g><g><path d="m62 21v25h-21.83c-.67-1.43-1.51-2.78-2.49-4h7.32 13v-18h-13-11v-3l2-1h25c.55 0 1 .45 1 1z" fill="#ccd1d9"/></g><g><path d="m33.09 13.14c-.9.54-1.95.85-3.08.85-.34 0-.67 0-1.01 0-.01 0-.01 0-.02 0-2.48 0-4.91 0-5.98 0-.01 0-.01 0-.02 0-1.65 0-2.98-1.35-2.98-2.99-1.23.61-2 1.87-2 3.24v1.76h-.67c-1.84 0-3.33 1.49-3.33 3.33 0 1.05.49 2.04 1.33 2.67l2.67 2v5l-1.35-.84c-2.07-1.3-3.73-3.08-4.88-5.14-1.14-2.07-1.77-4.42-1.77-6.87 0-7.81 6.34-14.15 14.15-14.15h5.85c3.31 0 6 2.68 6 6v.01c0 2.18-1.17 4.09-2.91 5.13z" fill="#fcd770"/></g><g><path d="m23 54h5c2.21 0 4 1.79 4 4 0 1.1-.45 2.1-1.17 2.83-.73.72-1.73 1.17-2.83 1.17h-12c-2.21 0-4-1.79-4-4 0-1.1.45-2.1 1.17-2.83.73-.72 1.73-1.17 2.83-1.17h4.11z" fill="#dfb28b"/></g><g><path d="m22 40.11c.32-.07.66-.11 1-.11 1.94 0 3.68.78 4.95 2.05s2.05 3.01 2.05 4.95-.78 3.68-2.05 4.95-3.01 2.05-4.95 2.05h-2.89c-2.67 0-5.26-.87-7.4-2.47-.45-.33-.71-.86-.71-1.42 0-.68.39-1.3 1-1.59l2.97-1.43c1.25-.6 2.13-1.78 2.37-3.15.19-1.14.78-2.12 1.61-2.82.58-.49 1.28-.85 2.05-1.01z" fill="#dfb28b"/></g><g><path d="m41.99 54c-.03-2.84-.68-5.55-1.82-8-.67-1.43-1.51-2.78-2.49-4-1.55-1.94-3.48-3.58-5.68-4.82-1.83-1.03-3.84-1.78-6-2.18v-5h3c1.13 0 2.17-.37 3-1 1.21-.91 2-2.37 2-4v-1-3l2-1c-1-4-2.75-6.59-2.91-6.86-.9.54-1.95.85-3.08.85-.34 0-.67 0-1.01 0-.01 0-.01 0-.02 0-2.48 0-4.91 0-5.98 0-.01 0-.01 0-.02 0-1.65 0-2.98-1.35-2.98-2.99-1.23.61-2 1.87-2 3.24v1.76h-.67c-1.84 0-3.33 1.49-3.33 3.33 0 1.05.49 2.04 1.33 2.67l2.67 2v5 6c-4.64.87-8.64 3.33-11.48 6.75-2.84 3.43-4.52 7.81-4.52 12.53v7.72h6 8c-2.21 0-4-1.79-4-4 0-1.1.45-2.1 1.17-2.83.73-.72 1.73-1.17 2.83-1.17h4.11c-2.67 0-5.26-.87-7.4-2.47-.45-.33-.71-.86-.71-1.42 0-.68.39-1.3 1-1.59l2.97-1.43c1.25-.6 2.13-1.78 2.37-3.15.19-1.14.78-2.12 1.61-2.82.58-.49 1.28-.85 2.05-1.01.32-.07.66-.11 1-.11 1.94 0 3.68.78 4.95 2.05s2.05 3.01 2.05 4.95-.78 3.68-2.05 4.95-3.01 2.05-4.95 2.05h5c2.21 0 4 1.79 4 4 0 1.1-.45 2.1-1.17 2.83-.73.72-1.73 1.17-2.83 1.17h8 6v-7.72c0-.09 0-.19-.01-.28z" fill="#f0d0b4"/></g><g><path d="m37.68 42c-1.55-1.94-3.48-3.58-5.68-4.82v-8.18c1.21-.91 2-2.37 2-4v-1h11c-4.97 0-9 4.03-9 9s4.03 9 9 9z" fill="#69d6f4"/></g><g><path d="m58 24v18h-13c4.97 0 9-4.03 9-9s-4.03-9-9-9z" fill="#69d6f4"/></g><g><path d="m45 24c4.97 0 9 4.03 9 9s-4.03 9-9 9-9-4.03-9-9 4.03-9 9-9z" fill="#e6e9ed"/></g><g><path d="m44 34c0 .93-.64 1.71-1.5 1.94-.16.04-.33.06-.5.06-1.1 0-2-.9-2-2s.9-2 2-2 2 .9 2 2z" fill="#fcd770"/></g><g><circle cx="45" cy="30" fill="#fcd770" r="2"/></g></g><g><path d="m17 57h10v2h-10z"/><path d="m42 37s.001 0 0 0c.938 1.247 2.415 2 4 2 2.757 0 5-2.243 5-5 0-2.035-1.23-3.831-3.061-4.601-.279-1.367-1.491-2.399-2.939-2.399-1.654 0-3 1.346-3 3 0 .359.074.7.19 1.019-.064-.004-.125-.019-.19-.019-1.654 0-3 1.346-3 3s1.346 3 3 3zm7-3c0 1.654-1.346 3-3 3-.751 0-1.451-.297-1.994-.785.606-.549.994-1.335.994-2.215 0-.359-.074-.7-.19-1.019.064.004.125.019.19.019 1.119 0 2.085-.623 2.601-1.534.852.539 1.399 1.483 1.399 2.534zm-4-5c.552 0 1 .449 1 1s-.448 1-1 1-1-.449-1-1 .448-1 1-1zm-3 4c.552 0 1 .448 1 1s-.448 1-1 1-1-.448-1-1 .448-1 1-1z"/><path d="m61 55c1.103 0 2-.897 2-2v-32c0-1.103-.897-2-2-2h-24.251c-.553-1.951-1.34-3.831-2.336-5.566.186-.151.366-.312.538-.484 1.321-1.321 2.049-3.076 2.049-4.953 0-3.858-3.139-6.997-6.997-6.997h-5.849c-8.356 0-15.154 6.798-15.154 15.155 0 5.26 2.662 10.064 7.122 12.851l.878.549v4.633c-9.32 2.136-16 10.456-16 20.09v8.722h62v-2h-20v-6zm-18.055-2c-.129-2.092-.57-4.108-1.286-6h19.341v6zm-6.709-32h24.764v24h-20.227c-.348-.688-.725-1.358-1.145-2h19.372v-20h-24v-1.382zm-9.236 13.188v-3.188h2c.702 0 1.373-.128 2-.35v4.918c-1.268-.583-2.599-1.059-4-1.38zm6-4.728c1.224-1.099 2-2.688 2-4.46h4.026c-2.438 1.825-4.026 4.727-4.026 8s1.588 6.175 4.026 8h-.896c-1.451-1.72-3.179-3.202-5.13-4.376zm20 3.54c0 4.411-3.589 8-8 8s-8-3.589-8-8 3.589-8 8-8 8 3.589 8 8zm-2.026-8h6.026v16h-6.026c2.438-1.825 4.026-4.727 4.026-8s-1.588-6.175-4.026-8zm-39.974-8.845c0-7.254 5.901-13.155 13.154-13.155h5.849c2.756 0 4.997 2.242 4.997 5.006 0 1.333-.52 2.587-1.462 3.529-.942.941-2.194 1.459-3.525 1.459-.002 0-.003 0-.005 0-.335 0-.673-.001-1.01-.001v-.001c-.002 0-.004 0-.005 0-.531 0-1.031-.207-1.407-.582-.378-.376-.586-.879-.586-1.414 0-1.1.896-1.996 1.996-1.996v-2c-2.203 0-3.996 1.792-3.996 3.996 0 .715.201 1.393.551 1.995-1.087 0-2.003 0-2.553.001-.002 0-.004 0-.005 0-.531 0-1.031-.207-1.407-.582-.378-.376-.586-.879-.586-1.414 0-1.1.896-1.996 1.996-1.996h.004l-.004-2c-1.998 0-3.643 1.478-3.935 3.396-1.282.85-2.061 2.272-2.061 3.84v.777c-2.234.17-4 2.043-4 4.321 0 1.356.647 2.652 1.733 3.466l2.267 1.7v2.679c-3.756-2.436-6-6.534-6-11.024zm-8 38.123c0-8.951 6.386-16.646 15.185-18.296l.815-.152v-12.33l-3.066-2.3c-.585-.438-.934-1.136-.934-1.867 0-1.286 1.047-2.333 2.333-2.333h1.667v-2.764c0-.529.164-1.024.444-1.444.19.375.424.729.73 1.035.754.752 1.754 1.166 2.819 1.166h.009c1.222-.001 4.19-.001 7.004.002h.007c.939 0 1.85-.185 2.692-.536.88 1.534 1.609 3.235 2.118 5.013l-1.823.91v2.618h-7c-2.757 0-5 2.243-5 5v11.357c-1.876.695-3.301 2.344-3.65 4.421-.177 1.05-.854 1.95-1.812 2.411l-2.969 1.428c-.953.459-1.569 1.44-1.569 2.497 0 .868.415 1.697 1.108 2.217.571.428 1.176.809 1.807 1.138-1.715.794-2.915 2.52-2.915 4.531 0 1.13.391 2.162 1.026 3h-3.026v-12h-2v12h-4zm20-1.278h-2.886c-2.438 0-4.855-.806-6.806-2.27-.193-.144-.308-.375-.308-.616 0-.295.172-.568.438-.696l2.968-1.427c1.541-.742 2.632-2.192 2.917-3.881.181-1.078.813-1.972 1.678-2.522v4.412c0 1.654-1.346 3-3 3h-1v2h1c2.757 0 5-2.243 5-5v-5c3.309 0 6 2.691 6 6s-2.692 6-6.001 6zm-7 8c-1.654 0-3-1.346-3-3s1.346-3 3-3h12c1.654 0 3 1.346 3 3s-1.346 3-3 3zm21 0v-12h-2v12h-3.026c.635-.838 1.026-1.87 1.026-3 0-2.672-2.113-4.844-4.754-4.975 1.684-1.468 2.754-3.622 2.754-6.025 0-4.411-3.589-8-8-8v-11c0-1.654 1.346-3 3-3h7c0 2.206-1.794 4-4 4h-4v6.83l.815.152c8.799 1.651 15.185 9.345 15.185 18.296v6.722z"/><path d="m55 49h2v2h-2z"/><path d="m51 49h2v2h-2z"/><path d="m47 49h2v2h-2z"/></g></g></svg>