<svg height="480pt" viewBox="0 0 480 480.00181" width="480pt" xmlns="http://www.w3.org/2000/svg"><path d="m160 256-80 192h40l123.464844-189.445312-75.464844-26.554688zm0 0" fill="#466089"/><path d="m243.761719 89.710938 30.1875 10.621093-7.96875 22.640625-30.183594-10.621094zm0 0" fill="#fcb98b"/><path d="m235.464844 282.554688-75.464844-26.554688 47.832031-136.511719c4.402344-12.503906 18.105469-19.070312 30.609375-14.671875l14.960938 5.265625c13.480468 4.742188 22.175781 17.847657 21.320312 32.105469l-1.378906 22.855469c-.445312 7.414062-1.925781 14.742187-4.390625 21.75zm0 0" fill="#80d6fb"/><path d="m168 232-8.703125 26.121094c-4.351563 13.066406.136719 27.457031 11.160156 35.722656l77.542969 58.15625v96h40v-101.335938c0-6.917968-2.246094-13.664062-6.398438-19.199218l-41.601562-55.464844 3.464844-13.445312zm0 0" fill="#6e83b7"/><g fill="#ffd3b3"><path d="m128 480h-32c-8.839844 0-16-7.15625-16-16v-16h48c8.839844 0 16 7.160156 16 16 0 8.84375-7.160156 16-16 16zm0 0"/><path d="m296 480h-32c-8.839844 0-16-7.15625-16-16v-16h48c8.839844 0 16 7.160156 16 16 0 8.84375-7.160156 16-16 16zm0 0"/><path d="m256.183594 102.585938c-20.839844-7.335938-31.78125-30.167969-24.453125-51.007813l5.308593-15.097656c7.335938-20.839844 30.167969-31.78125 51.011719-24.453125 20.839844 7.335937 31.78125 30.167968 24.453125 51.007812l-5.304687 15.09375c-7.335938 20.839844-30.175781 31.785156-51.015625 24.457032zm0 0"/></g><path d="m284.976562 44.867188-4.207031 11.964843c-.703125 2-2.175781 3.640625-4.089843 4.5625l-7.214844 3.457031 2.65625-7.546874-7.542969-2.65625c-2.9375 8.335937-12.074219 12.714843-20.402344 9.785156l-14.335937-5.039063c.359375-2.617187.984375-5.234375 1.898437-7.816406l5.3125-15.097656 5.308594-15.09375c5.867187-16.671875 24.136719-25.433594 40.808594-19.5625l16.375 5.761719 36.449219 12.824218-7.96875 22.640625c-2.933594 8.335938-12.070313 12.710938-20.398438 9.78125zm0 0" fill="#6e83b7"/><path d="m266.808594 72.402344-3.777344-1.328125c-6.246094-2.199219-9.535156-9.046875-7.335938-15.304688 2.203126-6.246093 9.050782-9.535156 15.304688-7.335937l3.777344 1.328125zm0 0" fill="#ffd3b3"/><path d="m288 48 4.425781 8.851562c1.976563 3.949219.375 8.75-3.578125 10.726563l-8.847656 4.421875zm0 0" fill="#ffd3b3"/><path d="m265.695312 63.523438c-2.078124-.738282-3.175781-3.019532-2.445312-5.105469.734375-2.082031 3.015625-3.175781 5.101562-2.449219l3.777344 1.328125-2.65625 7.546875zm0 0" fill="#fcb98b"/><path d="m464 448h-16v-168c0-13.230469-10.765625-24-24-24h-368c-13.230469 0-24 10.769531-24 24v168h-16v-168c0-22.054688 17.945312-40 40-40h368c22.058594 0 40 17.945312 40 40zm0 0" fill="#edeff1"/><path d="m0 448h48v32h-48zm0 0" fill="#6e83b7"/><path d="m432 448h48v32h-48zm0 0" fill="#6e83b7"/><path d="m285.128906 217.449219-16.503906-55.289063-30.664062 9.152344 16.542968 55.394531c2.585938 8.65625 8.714844 15.816407 16.863282 19.710938l45.808593 21.894531c8.015625 3.832031 17.617188.410156 21.394531-7.628906 3.742188-7.960938.359376-17.441406-7.570312-21.25zm0 0" fill="#ffd3b3"/><path d="m268.625 162.160156-30.664062 9.152344-11.441407-38.328125c-2.527343-8.460937 2.289063-17.382813 10.753907-19.902344 8.464843-2.527343 17.382812 2.289063 19.902343 10.75zm0 0" fill="#46bee8"/><path d="m235.660156 163.644531 30.660156-9.152343 2.289063 7.664062-30.664063 9.152344zm0 0" fill="#6e83b7"/></svg>