<svg id="Capa_1" enable-background="new 0 0 512 512" height="512" viewBox="0 0 512 512" width="512" xmlns="http://www.w3.org/2000/svg"><g><path d="m41.315 187.279c-3.839 0-7.678-1.464-10.606-4.394-40.939-40.939-40.939-107.553 0-148.492 5.857-5.858 15.355-5.858 21.213 0s5.858 15.355 0 21.213c-29.242 29.243-29.242 76.824 0 106.066 5.858 5.858 5.858 15.355 0 21.213-2.929 2.93-6.768 4.394-10.607 4.394z" fill="#e2dff4"/><path d="m83.742 144.853c-3.839 0-7.678-1.464-10.606-4.394-17.546-17.545-17.546-46.094 0-63.64 5.857-5.858 15.355-5.858 21.213 0s5.858 15.355 0 21.213c-2.833 2.833-4.394 6.6-4.394 10.607s1.561 7.773 4.394 10.607c5.858 5.858 5.858 15.355 0 21.213-2.929 2.93-6.768 4.394-10.607 4.394z" fill="#e2dff4"/><g><path d="m446.459 220h-320c-8.284 0-15-6.716-15-15 0-113.038 91.963-205 205-205 42.039 0 82.473 12.688 116.928 36.693 33.646 23.441 59.278 55.933 74.124 93.963 7.871 20.162 5.275 42.877-6.943 60.765-12.225 17.895-32.453 28.579-54.109 28.579z" fill="#f9f9f9"/><path d="m507.511 130.657c-14.846-38.03-40.478-70.522-74.124-93.963-34.455-24.005-74.889-36.694-116.928-36.694v220h130c21.656 0 41.884-10.684 54.108-28.579 12.219-17.887 14.815-40.603 6.944-60.764z" fill="#e2dff4"/><path d="m256.459 512c-46.869 0-85-38.131-85-85v-222c0-79.953 65.047-145 145-145s145 65.047 145 145c0 42.324-17.894 83.001-49.093 111.601l-37.439 34.319c-21.27 19.497-33.468 47.227-33.468 76.08 0 46.869-38.131 85-85 85z" fill="#ffddce"/><g><path d="m316.459 60v427.148c15.435-15.397 25-36.676 25-60.148 0-28.853 12.198-56.583 33.468-76.08l37.439-34.319c31.199-28.6 49.093-69.276 49.093-111.601 0-79.953-65.047-145-145-145z" fill="#ffbca7"/></g><path d="m246.459 380c-8.284 0-15-6.716-15-15v-160c0-46.869 38.131-85 85-85s85 38.131 85 85c0 25.548-10.803 50.104-29.639 67.375-6.104 5.599-15.594 5.187-21.192-.919-5.599-6.106-5.188-15.595.919-21.193 12.654-11.603 19.912-28.1 19.912-45.262 0-30.327-24.673-55-55-55s-55 24.673-55 55v160c0 8.283-6.716 14.999-15 14.999z" fill="#ffbca7"/><path d="m111.459 205v20c0 41.421 33.579 75 75 75h77.5c26.234 0 47.5-21.266 47.5-47.5 0-26.234-21.266-47.5-47.5-47.5z" fill="#e2dff4"/><g><path d="m316.459 120v30c30.327 0 55 24.673 55 55 0 17.162-7.258 33.66-19.912 45.262-6.106 5.599-6.518 15.087-.919 21.193s15.088 6.518 21.192.919c18.836-17.27 29.639-41.827 29.639-67.375 0-46.868-38.131-84.999-85-84.999z" fill="#dd9080"/></g></g></g></svg>