<svg id="Layer_1" enable-background="new 0 0 512 512" height="512" viewBox="0 0 512 512" width="512" xmlns="http://www.w3.org/2000/svg"><g><path d="m441.831 512h-259.75c-2.138 0-3.899-1.68-4.003-3.815-2.476-50.849 23.914-107.106 15.556-156.852-52.021 46.358-150.634-4.79-150.634-82.281 0-41.3 98.715-165.581 124.346-190.594 20.788-20.285 30.874-47.075 37.202-75.316.411-1.832 2.026-3.142 3.904-3.142h251.608c2.028 0 3.742 1.523 3.977 3.537 16.053 137.42-9.961 220.556-33.456 346.756-8.346 44.816 10.304 108.393 15.235 157.308.236 2.356-1.616 4.399-3.985 4.399z" fill="#fdba91"/><g><path d="m430.58 350.293c23.496-126.2 49.509-209.336 33.456-346.756-.235-2.014-1.949-3.537-3.976-3.537h-27.314c16.919 139.538-9.339 223.014-33.035 350.293-8.598 46.173 11.457 112.259 15.643 161.707h26.477c2.369 0 4.222-2.043 3.984-4.4-4.931-48.914-23.581-112.491-15.235-157.307z" fill="#fc997d"/></g><path d="m174.315 311.049c-1.04 15.025-13.378 26.924-28.414 27.015-.109.001-.219.001-.329.001-34.2.001-71.654-31.096-71.717-68.911 1.231-18.949 42.989-78.437 54.198-93.817 17.777-24.394 56.361-10.233 54.276 19.896z" fill="#fa6f5f"/><path d="m165.145 157.769c-16.113-5.87-33.053-.71-43.153 13.151-9.033 12.395-54.166 75.359-55.621 97.748-.011.166-.016.333-.016.499.033 19.894 9.086 39.126 25.491 54.155 15.432 14.137 35.015 22.245 53.726 22.244l.374-.001c18.792-.114 34.54-15.047 35.851-33.998l8.015-115.817c1.188-17.179-8.494-32.088-24.667-37.981zm9.702 36.946-8.015 115.817c-.773 11.167-9.987 19.966-20.966 20.033l-.295.001c-14.785 0-31.081-6.842-43.593-18.305-6.741-6.175-11.937-13.167-15.432-20.6 14.936 5.703 14.197 10.403 21.823 15.417 6.079 3.996 13.261 4.484 18.504 4.84l12.281.836c.174.012.346.018.517.018 3.91 0 7.206-3.032 7.476-6.991.281-4.133-2.841-7.711-6.973-7.993l-12.282-.836c-12.193-.828-11.099-2.245-17.363-8.198-1.979-1.881-4.111-3.515-6.331-4.969 6.379.077 12.441-.47 17.855-3.958 2.806-1.808 4.871-4.083 6.692-6.091 4.318-4.757 2.998-2.727 7.522-5.585 2.299-1.452 6.58-4.156 10.737-4.719 4.104-.557 6.981-4.335 6.424-8.44-.556-4.104-4.333-6.98-8.44-6.424-7.759 1.052-13.65 5.094-17.637 7.47-6.878 2.765-10.181 9.092-13.423 11.181-2.386 1.536-6.271 1.623-10.734 1.549 4.041-2.917 7.424-6.76 9.688-11.323 2.288-4.612 3.198-9.315 5.191-11.794 3.894-4.844 15.654-6.413 21.235-16.236 2.046-3.602.786-8.18-2.816-10.226-3.601-2.045-8.179-.786-10.226 2.816-2.643 4.652-13.391 6.173-19.883 14.247-4.042 5.027-4.983 10.588-6.939 14.527-2.719 5.481-9.039 9.162-15.179 9.14 7.728-18.28 29.451-52.173 49.849-80.163 7.356-10.094 18.201-10.696 25.895-7.891 7.742 2.819 15.706 10.303 14.838 22.85z" fill="#fc997d"/></g></svg>