<svg id="Capa_1" enable-background="new 0 0 512 512" height="512" viewBox="0 0 512 512" width="512" xmlns="http://www.w3.org/2000/svg"><g><g><path d="m41.099 222.401c0-118.497 96.404-214.901 214.901-214.901 118.496 0 214.901 96.404 214.901 214.901z" fill="#5c586f"/><path d="m470.342 222.401c0 196.662-102.668 238.425-102.668 238.425h-223.906s-102.668-41.763-102.668-238.425z" fill="#5c586f"/><circle cx="434.427" cy="222.401" fill="#c7856a" r="52.584"/><path d="m326.696 437.405c-2.329.086-4.667.133-7.016.133-110.281 0-199.895-95.964-201.831-215.137h-76.749c0 196.662 102.668 238.425 102.668 238.425h182.928z" fill="#4f4c5f"/><path d="m117.803 218.465c0-100.222 62.018-184.725 146.679-210.782-2.816-.11-5.64-.183-8.482-.183-118.497 0-214.9 96.404-214.9 214.901h76.749c-.021-1.311-.046-2.62-.046-3.936z" fill="#4f4c5f"/><path d="m171.027 378.906 29.587 62.797-29.587 62.797h-63.224c0-90.256 63.224-125.594 63.224-125.594z" fill="#d8d8d8"/><path d="m171.027 378.906h169.946v125.594h-169.946z" fill="#ff9db0"/><path d="m423.912 161.931c-5.92-16.428-21.475-27.404-38.937-27.404h-257.951c-17.487 0-33.038 11.015-38.96 27.469-6.533 18.153-10.208 37.669-10.476 58.009-1.296 98.406 79.718 180.672 178.132 180.822 98.671.151 178.706-79.791 178.706-178.427.001-21.227-3.71-41.586-10.514-60.469z" fill="#da9d81"/><path d="m337.63 469.812c.201.109.401.217.601.323 15.294 8.09 33.953 6.095 47.63-4.502 68.081-52.749 30.982-156.126-48.884-122.403-79.866-33.723-116.965 69.654-48.884 122.403 13.677 10.597 32.336 12.592 47.63 4.502.2-.106.4-.213.601-.323.407-.221.9-.221 1.306 0z" fill="#ff748f"/><path d="m301.293 377.014c0-14.479 3.429-28.156 9.512-40.27-60.927-3.713-82.826 82.313-22.711 128.89 13.677 10.597 32.336 12.592 47.63 4.502.2-.106.4-.213.601-.323.406-.222.899-.222 1.306 0 .201.109.401.217.601.323 14.796 7.826 32.741 6.213 46.278-3.495-46.528-3.407-83.217-42.231-83.217-89.627z" fill="#fd5f7e"/><path d="m346.578 432.378c-25.01 0-45.285 20.275-45.285 45.285 0 14.821 12.015 26.836 26.836 26.836h36.898c14.821 0 26.836-12.015 26.836-26.836.001-25.01-20.274-45.285-45.285-45.285z" fill="#da9d81"/><path d="m193.193 389.195c-45.967-40.155-75.39-101.709-75.39-170.73 0-29.737 5.471-58.084 15.362-83.938h-6.141c-17.487 0-33.038 11.016-38.96 27.469-1.003 2.786-1.929 5.607-2.795 8.455-2.362-.415-4.92-.633-7.696-.633-29.041 0-52.584 23.542-52.584 52.583s23.542 52.583 52.584 52.583c2.851 0 5.467-.234 7.882-.671 16.309 52.568 56.56 95.272 107.738 114.882z" fill="#c7856a"/><g fill="#fff"><ellipse cx="147.745" cy="251.908" rx="39.944" ry="31.809"/><ellipse cx="364.255" cy="251.908" rx="39.944" ry="31.809"/></g></g><g><path d="m171.024 228.788c4.142 0 7.5-3.357 7.5-7.5v-16.328c0-4.143-3.358-7.5-7.5-7.5s-7.5 3.357-7.5 7.5v16.328c0 4.142 3.358 7.5 7.5 7.5z"/><path d="m340.976 228.788c4.142 0 7.5-3.357 7.5-7.5v-16.328c0-4.143-3.358-7.5-7.5-7.5s-7.5 3.357-7.5 7.5v16.328c0 4.142 3.357 7.5 7.5 7.5z"/><path d="m256 238.508c10.754 0 20.98-4.658 28.058-12.779 2.721-3.123 2.396-7.86-.727-10.582-3.123-2.721-7.86-2.396-10.582.727-4.228 4.851-10.333 7.634-16.749 7.634s-12.521-2.783-16.749-7.634c-2.721-3.123-7.459-3.448-10.582-.727s-3.448 7.459-.727 10.582c7.077 8.121 17.304 12.779 28.058 12.779z"/><path d="m56.356 166.158c24.909-88.525 106.343-151.158 199.644-151.158 34.886 0 69.405 8.869 99.824 25.648 3.628 2.001 8.189.683 10.19-2.944 2-3.627.682-8.189-2.945-10.189-32.632-18.001-69.655-27.515-107.069-27.515-105.204 0-196.327 74.278-217.711 176.997-12.726 11.025-20.799 27.285-20.799 45.404 0 16.677 6.834 31.784 17.844 42.681 2.952 35.649 9.776 68.106 20.316 96.497 1.442 3.883 5.758 5.863 9.642 4.42 3.883-1.441 5.862-5.758 4.421-9.641-8.809-23.727-14.916-50.519-18.207-79.822 9.095 4.39 19.275 6.345 28.654 5.892 8.814 25.435 23.251 48.945 42.706 69.009 10.46 10.788 21.965 20.149 34.27 28.001-10.934 8.581-28.376 25.285-41.083 51.964-12.854-12.705-24.172-28.328-33.726-46.571-1.921-3.67-6.453-5.087-10.124-3.165-3.669 1.921-5.086 6.454-3.165 10.123 11.349 21.672 25.1 39.977 40.912 54.503-5.722 16.137-9.646 35.483-9.646 58.208 0 4.142 3.358 7.5 7.5 7.5h257.225c18.933 0 34.336-15.403 34.336-34.336 0-4.274-.524-8.427-1.487-12.409 14.346-13.276 24.075-29.458 28.456-47.279 27.78-38.777 44.503-90.001 49.732-152.319 25.441-24.498 24.481-65.411-2.355-88.66-10.967-52.657-40.718-99.527-84.016-132.205-3.306-2.495-8.009-1.837-10.504 1.469-2.496 3.307-1.838 8.009 1.468 10.505 36.54 27.576 62.746 65.972 74.982 109.392-7.751-2.931-16.161-4.135-23.63-3.79-.344-1.013-.692-2.007-1.042-2.979-6.975-19.356-25.458-32.361-45.993-32.361h-257.952c-15.021 0-28.939 6.974-38.069 18.303-4.714 5.85-6.895 10.94-8.964 17.037-7.191-.333-15.693.786-23.635 3.79zm19.219 11.204c-7.247 29.092-7.43 60.292.111 90.079-23.629-.909-43.196-20.525-43.196-45.04 0-24.724 19.931-44.24 43.085-45.039zm87.952 216.272v103.366h-48.073c1.767-43.376 19.635-79.367 48.073-103.366zm15 103.366v-105.808c20.827 9.701 43.438 15.481 67.214 16.833 2.725 21.239 13.211 41.946 31.691 58.466 7.088 6.371 11.763 9.2 16.361 11.31.027 6.6 2.039 13.502 5.976 19.198h-121.242zm186.5 0c-38.316-.037-40.519.839-46.475-2.561-10.274-5.889-9.789-16.879-9.76-16.779.004-20.794 16.911-37.782 37.785-37.782 21.187 0 37.786 17.281 37.786 37.785.001 10.663-8.674 19.337-19.336 19.337zm26.644-46.777c-9.432-15.491-26.439-25.345-45.093-25.345-23.349 0-43.713 15.206-50.45 37.191-4.116-2.524-9.285-7.104-12.703-10.547-47.762-48.159-18.017-130.002 50.635-101.383 1.865.788 3.97.788 5.835 0 .021-.009.042-.016.063-.025 51.197-21.57 81.096 19.362 72.455 61.434-3.248 14.449-10.883 28.065-20.742 38.675zm68.242-173.42c-4.79 42.681-15.406 79.439-31.676 109.754-2.507-19.235-11.96-36.644-27.585-47.348 13.748-16.981 24.263-36.022 31.351-56.778.409-.082 13.449 1.177 27.91-5.628zm19.597-54.402c0 24.018-18.955 43.95-43.083 45.017 7.326-29.427 7.311-60.689-.007-90.056 24.265 1.122 43.09 21.107 43.09 45.039zm-91.885-80.269c13.155 1.04 24.696 9.759 29.231 22.342.784 2.178 1.789 5.17 2.68 8.097v.001c16.745 54.999 4.748 115.276-32.655 159.748-11.961-4.069-24.489-4.105-36.99-1.194 2.257-3.323 5.183-5.847 8.773-7.538 3.747-1.765 5.354-6.234 3.588-9.981-1.765-3.748-6.234-5.353-9.981-3.589-11.332 5.338-17.104 14.646-20.012 23.426-48.815-16.316-84.932 15.803-87.108 59.498-112.485-7.395-188.546-121.64-150.029-228.405 4.842-13.455 17.658-22.509 31.902-22.509 275.36.037 258.097-.094 260.601.104z"/></g></g></svg>