<svg height="512" viewBox="0 0 60 45" width="512" xmlns="http://www.w3.org/2000/svg"><g id="Page-1" fill="none" fill-rule="evenodd"><g id="009---Eye-Test-Glasses" fill-rule="nonzero"><path id="Shape" d="m5.1 44.9c-.26703629-.0007042-.52255844-.1088236-.709-.3-4.28555976-4.2908958-5.56574308-10.74018-3.24401174-16.3426235 2.32173134-5.6024434 7.78854095-9.255679 13.85301174-9.2573765.5522847 0 1 .4477153 1 1s-.4477153 1-1 1c-5.25846486-.0000906-9.99910795 3.1677179-12.0110512 8.026065-2.01194326 4.8583472-.89889695 10.4502909 2.8200512 14.167935.28545088.2863449.37038353.7164081.21521733 1.08977-.15516621.3733618-.51989627.6165488-.92421733.61623z" fill="#3f5c6c"/><path id="Shape" d="m54.9 44.9c-.4043211.0003188-.7690511-.2428682-.9242173-.61623-.1551662-.3733619-.0702336-.8034251.2152173-1.08977 3.7189481-3.7176441 4.8319945-9.3095878 2.8200512-14.167935-2.0119433-4.8583471-6.7525863-8.0261556-12.0110512-8.026065-.5522847 0-1-.4477153-1-1s.4477153-1 1-1c6.0644708.0016975 11.5312804 3.6549331 13.8530117 9.2573765 2.3217314 5.6024435 1.0415481 12.0517277-3.2440117 16.3426235-.1864416.1911764-.4419637.2992958-.709.3z" fill="#3f5c6c"/><path id="Shape" d="m27 7v-4c0-1.65685425 1.3431458-3 3-3s3 1.34314575 3 3v4z" fill="#35495e"/><path id="Shape" d="m36 34v-15c0-1.1045695.8954305-2 2-2h1c1.1045695 0 2 .8954305 2 2v1c0 .5522847.4477153 1 1 1h3v-2c0-1.1045695.8954305-2 2-2h4c.8338855.0000216 1.6301553-.3470372 2.1977772-.9579138.567622-.6108766.8553744-1.430446.7942228-2.2620862-.1738457-1.6059008-1.5460481-2.8127096-3.161-2.78h-41.831c-.83388546-.0000216-1.63015526.3470372-2.19777725.9579138s-.85537435 1.430446-.79422275 2.2620862c.17384565 1.6059008 1.54604807 2.8127096 3.161 2.78h3.831c1.1045695 0 2 .8954305 2 2v2h3c.5522847 0 1-.4477153 1-1v-1c0-1.1045695.8954305-2 2-2h1c1.1045695 0 2 .8954305 2 2v15z" fill="#547580"/><path id="Shape" d="m27.72 15.45c-2.0555792-1.0532196-3.1222501-3.3773453-2.5805295-5.62261061.5417206-2.24526529 2.5508374-3.82728827 4.8605295-3.82728827s4.3188089 1.58202298 4.8605295 3.82728827c.5417206 2.24526531-.5249503 4.56939101-2.5805295 5.62261061z" fill="#3f5c6c"/><path id="Shape" d="m24.37 37.49.01-.01c1.6687892-1.0772719 3.6370713-1.5956095 5.62-1.48 1.9812367-.1124929 3.9475828.4018361 5.62 1.47l-.54-4.7c-1.639933-.5323137-3.3559828-.7924236-5.08-.77-1.7240172-.0224236-3.440067.2376863-5.08.77z" fill="#7f8c8d"/><circle id="Oval" cx="30" cy="21" fill="#35495e" r="6"/><circle id="Oval" cx="15" cy="34" fill="#2fa8cc" r="10"/><circle id="Oval" cx="45" cy="34" fill="#2fa8cc" r="10"/><g fill="#67b9cc"><path id="Shape" d="m21.55 26.45-14.1 14.1c-.98782987-1.1254412-1.70300336-2.4633973-2.09-3.91l12.28-12.28c1.4466027.3869966 2.7845588 1.1021701 3.91 2.09z"/><path id="Shape" d="m51.55 26.45-14.1 14.1c-.9878299-1.1254412-1.7030034-2.4633973-2.09-3.91l12.28-12.28c1.4466027.3869966 2.7845588 1.1021701 3.91 2.09z"/></g></g></g></svg>