<svg height="512" viewBox="0 0 512 512" width="512" xmlns="http://www.w3.org/2000/svg"><g id="Flat"><path d="m120 424h40a0 0 0 0 1 0 0v48a0 0 0 0 1 0 0h-40a24 24 0 0 1 -24-24 24 24 0 0 1 24-24z" fill="#f4ceaf"/><path d="m422.37 161.48-1.64 17.6499-1.67 17.8901-6.69 71.96-1.64 17.68018-6.58 70.68994-1.64 17.66988-2.31 24.79-1.5 16.10986-2.65 28.53028a47.94358 47.94358 0 0 1 -47.79 43.54986h-212.63a15.99259 15.99259 0 0 1 -14.85-21.93994l15.68-39.22022 1.58-3.93994a32.01685 32.01685 0 0 1 21.47-19.02978l1.84-.49024 15.88-4.23974 24.53-6.54 20.2-5.39014 11.27-3.00976a39.98876 39.98876 0 0 0 29.67-40.02l-1.86-54.03028-.66-19.06006-2.63-76.21-.65-19.05981-.53-15.27a15.99972 15.99972 0 0 1 15.99-16.55009h133.88a15.99506 15.99506 0 0 1 15.93 17.48z" fill="#8acce7"/><g fill="#379ec3"><path d="m404.15 357.35-1.64 17.67-141.47-84.87-.66-19.06z"/><path d="m412.37 268.98-1.64 17.68-152.98-91.78-.65-19.06z"/><path d="m420.73 179.13-1.67 17.89-83.74-53.02h29.92z"/><path d="m400.2 399.81006-1.5 16.10986-152.2-38.0498a40.05228 40.05228 0 0 0 11.75-13.5503z"/><path d="m362.76 485.77a48.01382 48.01382 0 0 1 -14.5 2.23h-10.22l-136.28-95.3999 20.2-5.39014z"/><path d="m225.08 488h-18.17l-45.56-84.62 15.88-4.24z"/><path d="m168.25 488h-16.49l-15.3-61.16016 1.58-3.93994a31.941 31.941 0 0 1 10.5-13.6997z"/></g><path d="m406.44255 144 5.23856-48.23388a738.76483 738.76483 0 0 0 4.31889-79.76612h-144l.56123 128z" fill="#f4ceaf"/></g></svg>