<svg id="Capa_1" enable-background="new 0 0 512 512" height="512" viewBox="0 0 512 512" width="512" xmlns="http://www.w3.org/2000/svg"><g><path d="m347 196c8.284 0 15-6.716 15-15s-6.716-15-15-15c-16.763 0-32.772 5.453-46 15.483v-.483c0-24.393 21.065-45 46-45 8.284 0 15-6.716 15-15s-6.716-15-15-15c-41.458 0-76 33.535-76 75v270c0 8.284 6.716 15 15 15s15-6.716 15-15v-150c0-24.393 21.065-45 46-45 8.284 0 15-6.716 15-15s-6.716-15-15-15c-16.763 0-32.772 5.453-46 15.483v-.483c0-24.393 21.065-45 46-45z" fill="#cc2e43"/><path d="m165 106c-8.28 0-15 6.72-15 15s6.72 15 15 15c24.93 0 46 20.61 46 45v.46c-13.22-10.03-29.24-15.46-46-15.46-8.28 0-15 6.72-15 15s6.72 15 15 15c24.93 0 46 20.61 46 45v.46c-13.22-10.03-29.24-15.46-46-15.46-8.28 0-15 6.72-15 15s6.72 15 15 15c24.93 0 46 20.61 46 45v150c0 8.28 6.72 15 15 15s15-6.72 15-15c0-31.356 0-234.725 0-270 0-41.267-34.367-75-76-75z" fill="#ec5569"/><path d="m392 46c-33.084 0-60 26.916-60 60 0 14.163 4.944 27.186 13.181 37.46-8.433 10.506-13.181 23.679-13.181 37.54s4.748 27.034 13.181 37.54c-8.237 10.274-13.181 23.297-13.181 37.46 0 33.084 26.916 60 60 60 66.168 0 120-60.561 120-135s-53.832-135-120-135z" fill="#ec5569"/><path d="m166.819 143.46c8.237-10.274 13.181-23.297 13.181-37.46 0-33.084-26.916-60-60-60-66.168 0-120 60.561-120 135s53.832 135 120 135c33.084 0 60-26.916 60-60 0-14.163-4.944-27.186-13.181-37.46 8.433-10.506 13.181-23.679 13.181-37.54s-4.748-27.034-13.181-37.54z" fill="#ff8e8e"/></g></svg>